<svg width="20" height="20" viewBox="0 0 20 20" fill="none" xmlns="http://www.w3.org/2000/svg">
<g clip-path="url(#clip0_54_100)">
<path d="M9.99992 12.1875L7.81242 10L9.99992 7.81254L12.1874 10L9.99992 12.1875ZM8.22909 6.06254L6.49992 4.33337L9.99992 0.833374L13.4999 4.33337L11.7708 6.06254L9.99992 4.29171L8.22909 6.06254ZM4.33325 13.5L0.833252 10L4.33325 6.50004L6.06242 8.22921L4.29159 10L6.06242 11.7709L4.33325 13.5ZM15.6666 13.5L13.9374 11.7709L15.7083 10L13.9374 8.22921L15.6666 6.50004L19.1666 10L15.6666 13.5ZM9.99992 19.1667L6.49992 15.6667L8.22909 13.9375L9.99992 15.7084L11.7708 13.9375L13.4999 15.6667L9.99992 19.1667Z" fill="white"/>
</g>
<defs>
<clipPath id="clip0_54_100">
<rect width="20" height="20" fill="white"/>
</clipPath>
</defs>
</svg>
