<svg width="20" height="20" viewBox="0 0 20 20" fill="none" xmlns="http://www.w3.org/2000/svg">
<path d="M19.7003 12.4202C18.365 17.7786 12.9383 21.0369 7.57987 19.7002C2.22396 18.3752 -1.03826 12.9377 0.3003 7.58778C1.63386 2.22531 7.06228 -1.03551 12.4174 0.29865C17.7766 1.63614 21.0372 7.06111 19.7003 12.4219V12.4202V12.4202ZM14.4077 8.5761C14.6077 7.25111 13.5959 6.53445 12.2073 6.05112L12.6574 4.25696L11.5614 3.98196L11.1238 5.73779C10.8363 5.66529 10.5362 5.59862 10.237 5.52945L10.6754 3.75696L9.57521 3.48197L9.12513 5.28612C8.88759 5.23029 8.65422 5.17612 8.42501 5.11946L6.91226 4.74446L6.62054 5.91695C6.62054 5.91695 7.43318 6.10445 7.41651 6.11362C7.86242 6.22695 7.9416 6.51862 7.92909 6.75195L6.69805 11.6853C6.63554 11.8236 6.49802 12.0236 6.1863 11.9469C6.1988 11.9636 5.38616 11.7469 5.38616 11.7469L4.83607 13.0052L6.26131 13.3602L7.03644 13.5619L6.58637 15.3869L7.68655 15.6594L8.13663 13.8511C8.43668 13.9344 8.72423 14.0094 9.01178 14.0786L8.58671 15.8736L9.68689 16.1486L10.1411 14.3236C12.0081 14.6794 13.4167 14.5377 14.0085 12.8452C14.4835 11.4811 13.9835 10.6953 12.9941 10.1819C13.7059 10.0211 14.2443 9.5486 14.3944 8.5736H14.4027L14.4077 8.5761ZM11.8989 12.0927C11.5622 13.4594 9.26765 12.7177 8.52336 12.5344L9.12346 10.1178C9.87026 10.3094 12.2548 10.6761 11.8989 12.0927V12.0927ZM12.2407 8.55944C11.9323 9.8011 10.0219 9.17193 9.40268 9.01777L9.94777 6.81778C10.5679 6.96778 12.5624 7.25444 12.2398 8.55444V8.55944H12.2407Z" fill="white"/>
</svg>
