<svg width="20" height="20" viewBox="0 0 20 20" fill="none" xmlns="http://www.w3.org/2000/svg">
<path d="M5.57343 4.42444C5.27786 4.42444 4.9944 4.54185 4.7854 4.75085C4.5764 4.95985 4.45898 5.24331 4.45898 5.53888C4.45898 5.83445 4.5764 6.11792 4.7854 6.32691C4.9944 6.53591 5.27786 6.65333 5.57343 6.65333H14.4068C14.7023 6.65333 14.9858 6.53591 15.1948 6.32691C15.4038 6.11792 15.5212 5.83445 15.5212 5.53888C15.5212 5.24331 15.4038 4.95985 15.1948 4.75085C14.9858 4.54185 14.7023 4.42444 14.4068 4.42444H5.57343Z" fill="white"/>
<path d="M4.46216 9.99994C4.46216 9.38661 4.95882 8.8855 5.57327 8.8855H14.4066C14.7022 8.8855 14.9856 9.00291 15.1946 9.21191C15.4036 9.42091 15.521 9.70437 15.521 9.99994C15.521 10.2955 15.4036 10.579 15.1946 10.788C14.9856 10.997 14.7022 11.1144 14.4066 11.1144H5.57327C4.95882 11.1144 4.46216 10.6144 4.46216 9.99994Z" fill="white"/>
<path d="M5.58326 13.3467C5.28754 13.3467 5.00394 13.4642 4.79484 13.6733C4.58573 13.8824 4.46826 14.166 4.46826 14.4617C4.46826 14.7574 4.58573 15.041 4.79484 15.2501C5.00394 15.4592 5.28754 15.5767 5.58326 15.5767H14.4166C14.7123 15.5767 14.9959 15.4592 15.205 15.2501C15.4141 15.041 15.5316 14.7574 15.5316 14.4617C15.5316 14.166 15.4141 13.8824 15.205 13.6733C14.9959 13.4642 14.7123 13.3467 14.4166 13.3467H5.58326Z" fill="white"/>
<path fill-rule="evenodd" clip-rule="evenodd" d="M0 3.33333C0 2.44928 0.35119 1.60143 0.976311 0.976311C1.60143 0.35119 2.44928 0 3.33333 0H16.6667C17.5507 0 18.3986 0.35119 19.0237 0.976311C19.6488 1.60143 20 2.44928 20 3.33333V16.6667C20 17.5507 19.6488 18.3986 19.0237 19.0237C18.3986 19.6488 17.5507 20 16.6667 20H3.33333C2.44928 20 1.60143 19.6488 0.976311 19.0237C0.35119 18.3986 0 17.5507 0 16.6667V3.33333ZM3.33333 2.22222H16.6667C16.9614 2.22222 17.244 2.33929 17.4523 2.54766C17.6607 2.75603 17.7778 3.03865 17.7778 3.33333V16.6667C17.7778 16.9614 17.6607 17.244 17.4523 17.4523C17.244 17.6607 16.9614 17.7778 16.6667 17.7778H3.33333C3.03865 17.7778 2.75603 17.6607 2.54766 17.4523C2.33929 17.244 2.22222 16.9614 2.22222 16.6667V3.33333C2.22222 3.03865 2.33929 2.75603 2.54766 2.54766C2.75603 2.33929 3.03865 2.22222 3.33333 2.22222Z" fill="white"/>
</svg>
