<svg width="20" height="20" viewBox="0 0 20 20" fill="none" xmlns="http://www.w3.org/2000/svg">
<path d="M8.08341 18.3333L7.66675 15.7083C7.40286 15.6111 7.12508 15.4791 6.83341 15.3125C6.54175 15.1458 6.2848 14.9722 6.06258 14.7916L3.60425 15.9166L1.66675 12.5L3.91675 10.8541C3.88897 10.7291 3.87161 10.5868 3.86466 10.427C3.85772 10.2673 3.85425 10.125 3.85425 9.99996C3.85425 9.87496 3.85772 9.7326 3.86466 9.57288C3.87161 9.41315 3.88897 9.27079 3.91675 9.14579L1.66675 7.49996L3.60425 4.08329L6.06258 5.20829C6.2848 5.02774 6.54175 4.85413 6.83341 4.68746C7.12508 4.52079 7.40286 4.39579 7.66675 4.31246L8.08341 1.66663H11.9167L12.3334 4.29163C12.5973 4.38885 12.8786 4.51732 13.1772 4.67704C13.4758 4.83676 13.7292 5.01385 13.9376 5.20829L16.3959 4.08329L18.3334 7.49996L16.0834 9.10413C16.1112 9.24301 16.1286 9.39232 16.1355 9.55204C16.1424 9.71176 16.1459 9.86107 16.1459 9.99996C16.1459 10.1388 16.1424 10.2847 16.1355 10.4375C16.1286 10.5902 16.1112 10.7361 16.0834 10.875L18.3334 12.5L16.3959 15.9166L13.9376 14.7916C13.7154 14.9722 13.4619 15.1493 13.1772 15.3229C12.8924 15.4965 12.6112 15.625 12.3334 15.7083L11.9167 18.3333H8.08341ZM10.0001 12.7083C10.7501 12.7083 11.389 12.4444 11.9167 11.9166C12.4445 11.3888 12.7084 10.75 12.7084 9.99996C12.7084 9.24996 12.4445 8.61107 11.9167 8.08329C11.389 7.55551 10.7501 7.29163 10.0001 7.29163C9.25008 7.29163 8.61119 7.55551 8.08341 8.08329C7.55564 8.61107 7.29175 9.24996 7.29175 9.99996C7.29175 10.75 7.55564 11.3888 8.08341 11.9166C8.61119 12.4444 9.25008 12.7083 10.0001 12.7083ZM10.0001 11.4583C9.5973 11.4583 9.25355 11.3159 8.96883 11.0312C8.68411 10.7465 8.54175 10.4027 8.54175 9.99996C8.54175 9.59718 8.68411 9.25343 8.96883 8.96871C9.25355 8.68399 9.5973 8.54163 10.0001 8.54163C10.4029 8.54163 10.7466 8.68399 11.0313 8.96871C11.3161 9.25343 11.4584 9.59718 11.4584 9.99996C11.4584 10.4027 11.3161 10.7465 11.0313 11.0312C10.7466 11.3159 10.4029 11.4583 10.0001 11.4583ZM9.08341 17.0833H10.9167L11.2084 14.75C11.6667 14.6388 12.1008 14.4652 12.5105 14.2291C12.9202 13.993 13.2917 13.7083 13.6251 13.375L15.8334 14.3333L16.6667 12.8333L14.7084 11.3958C14.764 11.1597 14.8091 10.927 14.8438 10.6979C14.8786 10.4687 14.8959 10.2361 14.8959 9.99996C14.8959 9.76385 14.882 9.53121 14.8542 9.30204C14.8265 9.07288 14.7779 8.84024 14.7084 8.60413L16.6667 7.16663L15.8334 5.66663L13.6251 6.62496C13.3056 6.26385 12.9445 5.96176 12.5417 5.71871C12.139 5.47565 11.6945 5.3194 11.2084 5.24996L10.9167 2.91663H9.08341L8.79175 5.24996C8.31953 5.34718 7.87855 5.51385 7.46883 5.74996C7.05911 5.98607 6.69453 6.27774 6.37508 6.62496L4.16675 5.66663L3.33341 7.16663L5.29175 8.60413C5.23619 8.84024 5.19105 9.07288 5.15633 9.30204C5.12161 9.53121 5.10425 9.76385 5.10425 9.99996C5.10425 10.2361 5.12161 10.4687 5.15633 10.6979C5.19105 10.927 5.23619 11.1597 5.29175 11.3958L3.33341 12.8333L4.16675 14.3333L6.37508 13.375C6.70841 13.7083 7.07994 13.993 7.48966 14.2291C7.89939 14.4652 8.33341 14.6388 8.79175 14.75L9.08341 17.0833Z" fill="white"/>
</svg>
